<?xml version="1.0" standalone="no"?>
<!DOCTYPE svg PUBLIC "-//W3C//DTD SVG 20010904//EN"
 "http://www.w3.org/TR/2001/REC-SVG-20010904/DTD/svg10.dtd">
<svg version="1.0" xmlns="http://www.w3.org/2000/svg"
 width="500.000000pt" height="500.000000pt" viewBox="0 0 500.000000 500.000000"
 preserveAspectRatio="xMidYMid meet">
<metadata>
Created by potrace 1.14, written by Peter Selinger 2001-2017
</metadata>
<g transform="translate(0.000000,500.000000) scale(0.100000,-0.100000)"
fill="#000000" stroke="none">
<path d="M2155 4732 l-340 -158 -3 -62 -3 -62 61 0 60 0 0 -280 0 -280 -95 0
c-88 0 -95 1 -95 20 0 17 -7 20 -45 20 l-45 0 0 -143 c0 -98 4 -147 12 -155 8
-8 49 -12 119 -12 l107 0 -5 -42 c-2 -24 -48 -709 -103 -1523 -55 -814 -102
-1510 -106 -1547 l-6 -68 -244 0 -244 0 0 -160 0 -160 1320 0 1320 0 0 160 0
160 -247 2 -248 3 -101 1495 c-56 822 -105 1534 -108 1582 l-7 86 107 4 c138
4 134 -1 134 180 l0 138 -50 0 c-47 0 -50 -2 -50 -25 0 -25 -1 -25 -90 -25
l-90 0 0 285 0 285 55 0 56 0 -3 62 -3 63 -335 157 c-184 86 -337 157 -340
157 -3 0 -158 -71 -345 -157z m925 -3892 l0 -400 -235 0 -235 0 0 400 0 400
235 0 235 0 0 -400z"/>
</g>
</svg>
